<svg width="116" height="130" viewBox="0 0 116 130" fill="none" xmlns="http://www.w3.org/2000/svg">
<g filter="url(#filter0_dd_3_11902)">
<path d="M64.951 62.603L86.5958 59.1853L51.5346 15.8536L31.5317 67.88L53.1756 64.4624" fill="#AFB9D2"/>
<path d="M64.9513 62.6026L75.5079 60.9357L54.7523 36.2206L42.6191 66.1289L53.1758 64.462" fill="#E4EAF7"/>
<path d="M86.596 59.1855L31.532 67.8802L37.8513 51.4407L43.1273 37.7214L51.5347 15.8538L66.2744 34.0698L75.5188 45.4948L86.596 59.1855Z" fill="#BEC8DC"/>
<path d="M75.5081 60.9363L42.619 66.1295L44.9964 60.27L50.4647 46.7902L54.752 36.2206L62.0877 44.9565L71.4424 56.0959L75.5081 60.9363Z" fill="#E4EAF7"/>
<path d="M75.5194 45.4949L69.1995 61.9327L48.9308 65.1331L37.8517 51.4409L43.1276 37.7215L57.8656 55.9378L66.2747 34.07L75.5194 45.4949Z" fill="#95A5B9"/>
<path d="M71.4425 56.0961L69.1994 61.9326L48.9307 65.133L44.9964 60.2702L50.4648 46.7903L57.8655 55.9377L62.0879 44.9568L71.4425 56.0961Z" fill="#BEC8DC"/>
<path d="M80.6734 21.6764L60.6707 73.7031L25.6094 30.3711L36.6979 28.6202L57.6386 54.5024L69.5865 23.4271L80.6734 21.6764Z" fill="#7DE6C4"/>
<path d="M69.5864 23.427L57.6388 54.502L36.698 28.6201L47.2543 26.9533L54.7521 36.221L59.0301 25.0939L69.5864 23.427Z" fill="#707384"/>
<path d="M88.1127 86.0066L38.3542 93.8635C36.8885 94.0949 35.513 93.0946 35.2816 91.6295L32.7661 75.6983C32.5346 74.2326 33.5351 72.8577 35.0008 72.6263L84.7593 64.7694C86.225 64.5379 87.5999 65.5379 87.8313 67.0035L90.3469 82.9348C90.5782 84.3998 89.5783 85.7752 88.1127 86.0066Z" fill="#B9EBFF"/>
<path d="M84.7593 64.7688L79.9121 65.5342C81.3778 65.3027 82.7533 66.3031 82.9847 67.7682L85.5003 83.7002C85.7316 85.1651 84.7313 86.5407 83.2656 86.7721L88.1128 86.0068C89.5785 85.7753 90.5782 84.3999 90.3469 82.9348L87.8312 67.0028C87.5999 65.5379 86.2244 64.5375 84.7593 64.7688Z" fill="#A0DCF0"/>
<path d="M39.0086 77.6694C38.9681 77.4128 39.0822 77.174 39.3509 76.9539C39.6202 76.7334 39.9168 76.5973 40.2412 76.5461C40.655 76.4807 40.9243 76.5877 41.0482 76.8659L45.0513 85.5536L46.1662 76.0578C46.1983 75.7549 46.4217 75.5702 46.8354 75.5049C47.1485 75.4554 47.4707 75.4966 47.8008 75.6277C48.1309 75.7591 48.3159 75.9478 48.3548 76.1936C48.3583 76.2162 48.3559 76.274 48.3473 76.3668L46.7919 87.4278C46.7624 87.6735 46.6233 87.882 46.375 88.0528C46.1267 88.2235 45.8346 88.3356 45.4995 88.3885C44.7274 88.5105 44.2189 88.3386 43.9732 87.8729L39.0685 77.8319C39.0317 77.7463 39.0123 77.6919 39.0087 77.6694L39.0086 77.6694ZM49.9694 84.244L49.3336 80.2175C49.3071 80.0497 49.3915 79.8759 49.5867 79.6962C49.782 79.5164 50.0248 79.4034 50.3158 79.3574C50.5957 79.3132 50.8558 79.3463 51.0968 79.4571C51.3379 79.568 51.4716 79.7067 51.498 79.8734L52.1321 83.8892C52.1937 84.2798 52.3941 84.6056 52.7336 84.8659C53.0731 85.1267 53.4437 85.2254 53.8467 85.1618C54.2491 85.0982 54.5691 84.8905 54.8057 84.5387C55.0427 84.1874 55.1299 83.816 55.0683 83.4255L54.4316 79.3934C54.4035 79.2154 54.4879 79.0415 54.6849 78.8732C54.882 78.7048 55.1258 78.5979 55.4168 78.552C55.7299 78.5025 55.9983 78.5291 56.2206 78.6312C56.4429 78.7334 56.5684 78.8746 56.5966 79.0533L57.235 83.0962C57.378 84.0022 57.1453 84.8534 56.5373 85.6481C55.929 86.4439 55.1327 86.9189 54.1481 87.0744C53.1642 87.2297 52.2574 87.0237 51.4279 86.4548C50.599 85.8871 50.1124 85.1499 49.9694 84.244ZM58.5383 82.8568L58.313 81.4302C58.1682 80.5134 58.4021 79.6684 59.014 78.8951C59.6253 78.1226 60.4402 77.6555 61.4581 77.4948C62.4087 77.3447 63.2702 77.517 64.0421 78.0109C64.8136 78.5054 65.2715 79.207 65.4152 80.1176C65.4677 80.4499 65.4691 80.7302 65.4191 80.9599C65.3695 81.189 65.2646 81.3614 65.1051 81.4775C64.9455 81.5936 64.7951 81.6742 64.6532 81.7191C64.5115 81.7648 64.3227 81.8054 64.0882 81.8424L60.6817 82.3803L60.7215 82.6321C60.7974 83.1129 61.0379 83.4734 61.4424 83.7133C61.8475 83.9528 62.3465 84.0264 62.9393 83.9328C63.3644 83.8656 63.7669 83.6932 64.1472 83.4153C64.5274 83.1374 64.7789 82.9889 64.9022 82.9694C65.1373 82.9323 65.3502 83.0105 65.5411 83.2032C65.7321 83.3967 65.8438 83.5941 65.8755 83.7952C65.925 84.1084 65.6915 84.4639 65.1753 84.8606C64.6587 85.2573 63.9809 85.5218 63.1421 85.6542C61.9451 85.8432 60.919 85.6815 60.0642 85.1689C59.2094 84.6562 58.7007 83.8855 58.5383 82.8568ZM60.4804 81.1053L62.93 80.7185C63.1091 80.6902 63.23 80.6416 63.2941 80.5731C63.3578 80.5039 63.3763 80.3863 63.3499 80.2189C63.2921 79.8533 63.1027 79.578 62.781 79.3936C62.4592 79.2086 62.0914 79.1491 61.6781 79.2143C61.2865 79.2762 60.9626 79.4419 60.7078 79.7128C60.4521 79.983 60.3534 80.3011 60.4111 80.6668L60.4804 81.1053ZM66.3488 81.675C66.2852 81.2721 66.3252 80.9825 66.4692 80.8051C66.6132 80.6277 66.8811 80.5077 67.2726 80.4458C67.955 80.3381 68.3545 80.5102 68.4716 80.9615C68.7054 82.1516 69.3762 82.6586 70.4834 82.4838C71.6693 82.2965 72.1605 81.5596 71.9574 80.2733L70.9137 73.6633L69.2023 73.9335C68.9897 73.967 68.8069 73.8986 68.6538 73.7281C68.5006 73.5576 68.4032 73.3379 68.3608 73.0693C68.3202 72.8122 68.3442 72.582 68.432 72.3792C68.5205 72.1758 68.6765 72.0567 68.9005 72.0214L71.8366 71.5578C72.0938 71.5171 72.3273 71.5435 72.537 71.6361C72.7465 71.7292 72.868 71.8821 72.9016 72.0946L74.1386 79.9289C74.347 81.2485 74.1452 82.2752 73.5327 83.0079C72.9203 83.7407 72.0385 84.198 70.886 84.38C69.7001 84.5672 68.6881 84.4205 67.8499 83.9394C67.0118 83.4589 66.5113 82.7038 66.3488 81.675ZM75.784 81.5263C75.7434 81.2691 75.8001 80.9937 75.954 80.6995C76.1082 80.4063 76.3085 80.2397 76.5548 80.2008C76.7001 80.1779 76.8761 80.2213 77.083 80.3317C77.2935 80.4452 77.4972 80.5711 77.6928 80.7088C77.8925 80.8499 78.1654 80.9649 78.5123 81.0526C78.8589 81.141 79.2276 81.154 79.6193 81.0921C80.1562 81.0073 80.5839 80.8142 80.9035 80.5117C81.2223 80.2087 81.344 79.8171 81.2681 79.336C81.2152 79.0009 81.0696 78.7175 80.8326 78.4849C80.5956 78.2536 80.3039 78.076 79.9577 77.9527C79.5871 77.8223 79.2105 77.7095 78.8292 77.6148C78.413 77.5098 78.001 77.3886 77.5942 77.2515C77.1763 77.1106 76.7878 76.9403 76.4293 76.7384C76.0708 76.5373 75.7608 76.2428 75.4988 75.8536C75.2366 75.4653 75.0632 75.0025 74.9784 74.4656C74.8835 73.8642 74.9201 73.3145 75.0876 72.8166C75.2558 72.319 75.521 71.9104 75.883 71.5914C76.2419 71.2751 76.6479 71.0168 77.0864 70.8256C77.5265 70.6338 78.0032 70.4977 78.5182 70.4164C78.8091 70.3705 79.1198 70.3422 79.4506 70.3306C79.7814 70.3202 80.1355 70.332 80.5139 70.366C80.8913 70.4009 81.2107 70.4977 81.471 70.6564C81.7314 70.8158 81.8823 71.027 81.924 71.291C81.9634 71.5402 81.9255 71.8104 81.8109 72.1008C81.6964 72.3918 81.5049 72.558 81.2364 72.6004C81.1357 72.6163 80.8449 72.5539 80.3636 72.4115C79.8825 72.2702 79.3683 72.242 78.8201 72.3285C78.2164 72.4238 77.767 72.6124 77.4732 72.894C77.1794 73.1756 77.0642 73.5177 77.1277 73.9199C77.179 74.2444 77.3582 74.5058 77.6645 74.7036C77.9711 74.9019 78.3349 75.045 78.7555 75.1333C79.1766 75.2214 79.6373 75.344 80.1376 75.4995C80.6379 75.6557 81.1077 75.8364 81.5476 76.0421C81.9872 76.2479 82.3815 76.5841 82.7304 77.0504C83.0791 77.5168 83.307 78.0913 83.4147 78.7736C83.5959 79.921 83.3696 80.8639 82.7353 81.6023C82.1008 82.3415 81.1851 82.8052 79.988 82.9943C78.9254 83.162 77.9793 83.0878 77.1503 82.7716C76.3201 82.456 75.8652 82.0406 75.784 81.5263Z" fill="#54A1FF"/>
</g>
<defs>
<filter id="filter0_dd_3_11902" x="-0.000106335" y="2.52724e-05" width="115.99" height="129.262" filterUnits="userSpaceOnUse" color-interpolation-filters="sRGB">
<feFlood flood-opacity="0" result="BackgroundImageFix"/>
<feColorMatrix in="SourceAlpha" type="matrix" values="0 0 0 0 0 0 0 0 0 0 0 0 0 0 0 0 0 0 127 0" result="hardAlpha"/>
<feMorphology radius="3.6585" operator="erode" in="SourceAlpha" result="effect1_dropShadow_3_11902"/>
<feOffset dy="9.75599"/>
<feGaussianBlur stdDeviation="14.634"/>
<feColorMatrix type="matrix" values="0 0 0 0 0.0627451 0 0 0 0 0.0941176 0 0 0 0 0.156863 0 0 0 0.1 0"/>
<feBlend mode="normal" in2="BackgroundImageFix" result="effect1_dropShadow_3_11902"/>
<feColorMatrix in="SourceAlpha" type="matrix" values="0 0 0 0 0 0 0 0 0 0 0 0 0 0 0 0 0 0 127 0" result="hardAlpha"/>
<feMorphology radius="3.6585" operator="erode" in="SourceAlpha" result="effect2_dropShadow_3_11902"/>
<feOffset dy="9.75599"/>
<feGaussianBlur stdDeviation="14.634"/>
<feColorMatrix type="matrix" values="0 0 0 0 0.0627451 0 0 0 0 0.0941176 0 0 0 0 0.156863 0 0 0 0.05 0"/>
<feBlend mode="normal" in2="effect1_dropShadow_3_11902" result="effect2_dropShadow_3_11902"/>
<feBlend mode="normal" in="SourceGraphic" in2="effect2_dropShadow_3_11902" result="shape"/>
</filter>
</defs>
</svg>
