<svg width="90" height="90" viewBox="0 0 90 90" fill="none" xmlns="http://www.w3.org/2000/svg">
<path d="M74.6646 25.833L58.0656 36.3609C55.9095 32.9615 52.457 30.3844 48.2194 29.436L52.512 10.2554C62.0465 12.3892 69.8152 18.1852 74.6646 25.833Z" fill="url(#paint0_linear_3_11915)"/>
<path d="M36.3609 31.5034C32.9615 33.6595 30.3843 37.1121 29.436 41.3496L10.2553 37.057C12.3891 27.5226 18.1851 19.7538 25.8329 14.9045L36.3609 31.5034Z" fill="url(#paint1_linear_3_11915)"/>
<path d="M52.5121 10.2555L48.2195 29.4362C43.982 28.4878 39.7603 29.3474 36.3609 31.5035L25.8329 14.9046C33.4795 10.0534 42.9777 8.1217 52.5121 10.2555Z" fill="url(#paint2_linear_3_11915)"/>
<path d="M79.314 52.5122L60.1333 48.2196C61.0816 43.9821 60.222 39.7604 58.0659 36.3609L74.6648 25.833C79.5161 33.4795 81.4477 42.9778 79.314 52.5122Z" fill="url(#paint3_linear_3_11915)"/>
<path d="M79.3138 52.5122C77.18 62.0467 71.384 69.8154 63.7362 74.6647L53.2083 58.0658C56.6077 55.9097 59.1848 52.4571 60.1332 48.2196L79.3138 52.5122Z" fill="url(#paint4_linear_3_11915)"/>
<path d="M31.5035 53.2083L14.9046 63.7362C10.0533 56.0897 8.12165 46.5914 10.2554 37.057L29.4361 41.3496C28.4878 45.5871 29.3474 49.8089 31.5035 53.2083Z" fill="url(#paint5_linear_3_11915)"/>
<path d="M63.7362 74.6648C56.0896 79.516 46.5914 81.4477 37.0569 79.3139L41.3496 60.1332C45.5871 61.0816 49.8088 60.2219 53.2082 58.0658L63.7362 74.6648Z" fill="url(#paint6_linear_3_11915)"/>
<path d="M41.3497 60.1333L37.0571 79.314C27.5226 77.1802 19.7538 71.3842 14.9045 63.7364L31.5035 53.2085C33.6596 56.6079 37.1121 59.185 41.3497 60.1333Z" fill="url(#paint7_linear_3_11915)"/>
<path d="M67.4515 30.408L58.0659 36.3609C55.9098 32.9615 52.4572 30.3844 48.2197 29.436L50.6466 18.5919C57.8804 20.2108 63.7708 24.6072 67.4515 30.408Z" fill="url(#paint8_linear_3_11915)"/>
<path d="M36.361 31.5036C32.9616 33.6597 30.3845 37.1123 29.4361 41.3498L18.592 38.9229C20.2109 31.6891 24.6072 25.7986 30.4081 22.118L36.361 31.5036Z" fill="url(#paint9_linear_3_11915)"/>
<path d="M50.6465 18.592L48.2196 29.4361C43.9821 28.4878 39.7604 29.3474 36.361 31.5035L30.4081 22.1179C36.2102 18.4393 43.4127 16.9731 50.6465 18.592Z" fill="url(#paint10_linear_3_11915)"/>
<path d="M70.9772 50.6466L60.1331 48.2197C61.0814 43.9822 60.2218 39.7604 58.0657 36.361L67.4513 30.4081C71.1299 36.2103 72.5961 43.4127 70.9772 50.6466Z" fill="url(#paint11_linear_3_11915)"/>
<path d="M70.9773 50.6465C69.3583 57.8804 64.9619 63.7708 59.1612 67.4514L53.2083 58.0658C56.6077 55.9097 59.1848 52.4571 60.1332 48.2196L70.9773 50.6465Z" fill="url(#paint12_linear_3_11915)"/>
<path d="M31.5036 53.2083L22.118 59.1612C18.4394 53.359 16.9732 46.1566 18.5921 38.9227L29.4362 41.3496C28.4879 45.5872 29.3475 49.8089 31.5036 53.2083Z" fill="url(#paint13_linear_3_11915)"/>
<path d="M59.1611 67.4515C53.359 71.13 46.1565 72.5962 38.9227 70.9773L41.3496 60.1332C45.5871 61.0816 49.8088 60.2219 53.2082 58.0658L59.1611 67.4515Z" fill="url(#paint14_linear_3_11915)"/>
<path d="M41.3498 60.1332L38.9229 70.9773C31.689 69.3584 25.7986 64.962 22.1179 59.1612L31.5036 53.2083C33.6597 56.6077 37.1122 59.1848 41.3498 60.1332Z" fill="url(#paint15_linear_3_11915)"/>
<path d="M77.5824 31.5043L60.3402 42.4403C60.6227 44.3105 60.571 46.2631 60.1332 48.2195C59.1848 52.457 56.6077 55.9096 53.2083 58.0657C49.8089 60.2218 45.5872 61.0814 41.3496 60.133C39.3933 59.6952 37.6048 58.9096 36.0335 57.8569L18.7913 68.7929C23.5023 73.9026 29.7619 77.6811 37.0572 79.3137C46.5916 81.4475 56.0898 79.5159 63.7364 74.6646C71.3842 69.8155 77.1802 62.0465 79.314 52.5121C80.9465 45.2169 80.1966 37.9439 77.5824 31.5043Z" fill="url(#paint16_linear_3_11915)"/>
<path d="M12.443 52.5472L0.451944 71.5255C-0.128194 72.4438 0.619882 73.6234 1.69783 73.49L23.9769 70.7324C29.0137 67.5377 17.4796 49.3527 12.443 52.5472Z" fill="url(#paint17_linear_3_11915)"/>
<path d="M54.4524 51.4049L23.9766 70.7322C23.7275 69.9361 23.2489 69.1739 22.5558 68.5546C21.6078 67.7131 19.8422 67.6625 18.591 67.7556C18.319 67.7744 18.1156 67.5894 18.0662 67.3648C18.049 67.2928 18.0479 67.2179 18.0632 67.1455C18.0784 67.073 18.1095 67.0049 18.1542 66.946C18.157 66.9466 18.1576 66.9438 18.1576 66.9438C18.2552 66.8103 18.3461 66.6719 18.4299 66.5292L18.5442 66.324C18.5481 66.3192 18.5487 66.3165 18.5499 66.3112C18.6651 66.0892 18.7613 65.863 18.8397 65.6271C18.8655 65.5502 18.8892 65.4701 18.9121 65.3926C18.9481 65.2631 18.9787 65.1324 19.0038 65.0004C19.1843 64.0558 19.0739 63.0787 18.6871 62.1983C18.5896 61.9752 18.475 61.7601 18.3442 61.5548C18.2143 61.3489 18.0685 61.1534 17.9082 60.9702C17.1697 60.1215 16.1734 59.5852 15.1145 59.4052C15.0346 59.3931 14.952 59.3803 14.8716 59.3707C14.6248 59.3411 14.3764 59.331 14.1292 59.3413C14.1238 59.3401 14.1211 59.3394 14.115 59.3409L13.8807 59.3569C13.7966 59.3637 13.7146 59.3739 13.632 59.3867C13.5527 59.3975 13.4727 59.4109 13.3923 59.4271C13.3895 59.4265 13.3895 59.4265 13.3862 59.4286C13.3138 59.444 13.2389 59.4431 13.1669 59.426C13.0948 59.4089 13.0275 59.376 12.9698 59.3297C12.7877 59.1893 12.707 58.9262 12.84 58.6884C13.4575 57.5963 14.1637 55.9802 13.8065 54.764C13.5422 53.8704 13.0597 53.1131 12.4429 52.548L42.9167 33.2176C44.29 32.3487 46.1071 32.7554 46.9765 34.1262L48.6206 36.7182L53.7169 44.7533L55.3609 47.3454C56.2302 48.7158 55.8236 50.5328 54.4524 51.4049Z" fill="url(#paint18_linear_3_11915)"/>
<path d="M53.7169 44.7531L18.0662 67.3648C18.049 67.2928 18.0479 67.2179 18.0631 67.1454C18.0784 67.073 18.1095 67.0049 18.1542 66.9459C18.1569 66.9465 18.1576 66.9438 18.1576 66.9438C18.2561 66.8093 18.7645 65.8608 18.8395 65.627C18.8687 65.5481 18.8916 65.4706 18.9119 65.3926C19.2004 64.358 19.14 63.2281 18.687 62.1983C18.5896 61.9752 18.475 61.76 18.3442 61.5548C18.2143 61.3488 18.0685 61.1534 17.9082 60.9701C17.1697 60.1215 16.1734 59.5852 15.1145 59.4052C15.0352 59.3903 14.9554 59.3781 14.8716 59.3707C14.6255 59.3388 14.3771 59.329 14.1292 59.3412C14.1238 59.34 14.121 59.3394 14.115 59.3409C14.0375 59.3435 13.4729 59.4108 13.3923 59.4269C13.3895 59.4263 13.3895 59.4263 13.3862 59.4284C13.3138 59.4438 13.2389 59.4429 13.1669 59.4258C13.0949 59.4087 13.0276 59.3758 12.9698 59.3295L48.6205 36.7179L53.7169 44.7531Z" fill="url(#paint19_linear_3_11915)"/>
<path d="M5.18875 69.8985C4.60205 68.9721 3.87516 68.1424 3.03403 67.439L0.452196 71.5254C-0.127941 72.4436 0.620134 73.6233 1.69811 73.4897L6.4952 72.896C6.21746 71.8352 5.77673 70.824 5.18875 69.8985Z" fill="url(#paint20_linear_3_11915)"/>
<path d="M86.7264 18.1828L49.9267 41.5233L46.5124 36.1402C45.7682 34.9668 46.1161 33.4122 47.2895 32.668L50.5091 30.6259C51.1972 30.1895 51.7926 29.6218 52.2613 28.9553C52.73 28.2887 53.0628 27.5364 53.2407 26.7413L53.9745 23.4628C54.5517 20.8835 56.6994 18.953 59.3255 18.6531L85.8239 15.6269C87.2909 15.4593 87.9732 17.3919 86.7264 18.1828Z" fill="url(#paint21_linear_3_11915)"/>
<path d="M86.7265 18.1828L49.9267 41.5232L53.341 46.9063C54.0852 48.0797 55.6398 48.4276 56.8132 47.6834L60.0328 45.6414C60.7209 45.205 61.4882 44.9083 62.2909 44.7684C63.0937 44.6286 63.9161 44.6482 64.7112 44.8261L67.9896 45.5598C70.5688 46.137 73.2306 45.0171 74.6213 42.7693L88.6537 20.0885C89.4306 18.833 87.9733 17.3918 86.7265 18.1828Z" fill="url(#paint22_linear_3_11915)"/>
<path d="M69.0725 30.5913L87.5568 18.8675C88.0169 18.5757 88.1985 17.9736 87.9369 17.4955C87.8699 17.3725 87.7784 17.2645 87.6679 17.1783C87.5575 17.0921 87.4305 17.0295 87.2949 16.9944C87.1593 16.9592 87.0179 16.9523 86.8795 16.9741C86.7411 16.9958 86.6086 17.0458 86.4903 17.1208L68.0197 28.836C66.8103 29.6031 65.3199 29.8376 63.9552 29.4031C62.693 29.0012 61.2533 29.191 60.0915 30.0747C58.4451 31.327 57.9506 33.6338 58.9355 35.4528C60.1179 37.6367 62.8774 38.3295 64.9387 37.0221C66.0183 36.3374 66.6827 35.2457 66.8597 34.0738C67.075 32.6459 67.8531 31.3647 69.0725 30.5913Z" fill="url(#paint23_linear_3_11915)"/>
<path d="M52.5968 28.4212C52.0942 29.3176 51.3768 30.0751 50.509 30.6258L47.2895 32.6678C46.1161 33.412 45.7682 34.9667 46.5124 36.14L49.9267 41.5231L53.3409 46.9062C54.0851 48.0796 55.6398 48.4275 56.8131 47.6833L60.0327 45.6413C60.9007 45.0909 61.8918 44.7649 62.9169 44.6924L52.5968 28.4212Z" fill="url(#paint24_linear_3_11915)"/>
<path d="M49.9456 54.2633L38.41 36.0755L45.6583 31.4783C46.4978 30.9458 47.6098 31.1947 48.1421 32.0342L57.7498 47.1821C58.2822 48.0216 58.0334 49.1336 57.1939 49.6659L49.9456 54.2633Z" fill="url(#paint25_linear_3_11915)"/>
<defs>
<linearGradient id="paint0_linear_3_11915" x1="49.0651" y1="8.12045" x2="66.7842" y2="36.0573" gradientUnits="userSpaceOnUse">
<stop stop-color="#FFF5D9"/>
<stop offset="1" stop-color="#FFCE47"/>
</linearGradient>
<linearGradient id="paint1_linear_3_11915" x1="17.535" y1="25.1779" x2="25.4662" y2="37.6826" gradientUnits="userSpaceOnUse">
<stop stop-color="#6FA953"/>
<stop offset="1" stop-color="#43765A"/>
</linearGradient>
<linearGradient id="paint2_linear_3_11915" x1="38.1973" y1="11.0423" x2="48.6201" y2="27.4758" gradientUnits="userSpaceOnUse">
<stop stop-color="#E4E08E"/>
<stop offset="1" stop-color="#6FA953"/>
</linearGradient>
<linearGradient id="paint3_linear_3_11915" x1="60.5249" y1="26.1881" x2="77.4417" y2="52.8602" gradientUnits="userSpaceOnUse">
<stop stop-color="#FFCE47"/>
<stop offset="1" stop-color="#FF9356"/>
</linearGradient>
<linearGradient id="paint4_linear_3_11915" x1="60.965" y1="46.9389" x2="70.772" y2="62.4013" gradientUnits="userSpaceOnUse">
<stop stop-color="#FF9356"/>
<stop offset="1" stop-color="#FF755C"/>
</linearGradient>
<linearGradient id="paint5_linear_3_11915" x1="12.804" y1="37.7755" x2="24.3439" y2="55.9698" gradientUnits="userSpaceOnUse">
<stop stop-color="#7ACBFF"/>
<stop offset="1" stop-color="#45A2E0"/>
</linearGradient>
<linearGradient id="paint6_linear_3_11915" x1="40.9019" y1="62.0197" x2="50.583" y2="77.2832" gradientUnits="userSpaceOnUse">
<stop stop-color="#FF755C"/>
<stop offset="1" stop-color="#FF4181"/>
</linearGradient>
<linearGradient id="paint7_linear_3_11915" x1="21.0588" y1="50.7905" x2="44.4683" y2="87.6993" gradientUnits="userSpaceOnUse">
<stop stop-color="#FF4181"/>
<stop offset="1" stop-color="#843561"/>
</linearGradient>
<linearGradient id="paint8_linear_3_11915" x1="61.349" y1="35.4615" x2="50.4437" y2="18.2676" gradientUnits="userSpaceOnUse">
<stop stop-color="#FFF5D9"/>
<stop offset="1" stop-color="#FFCE47"/>
</linearGradient>
<linearGradient id="paint9_linear_3_11915" x1="31.0085" y1="40.782" x2="17.4922" y2="19.4716" gradientUnits="userSpaceOnUse">
<stop stop-color="#6FA953"/>
<stop offset="1" stop-color="#43765A"/>
</linearGradient>
<linearGradient id="paint10_linear_3_11915" x1="46.3235" y1="29.4936" x2="34.2948" y2="10.5284" gradientUnits="userSpaceOnUse">
<stop stop-color="#E4E08E"/>
<stop offset="1" stop-color="#6FA953"/>
</linearGradient>
<linearGradient id="paint11_linear_3_11915" x1="70.8497" y1="50.4411" x2="58.1512" y2="30.4201" gradientUnits="userSpaceOnUse">
<stop stop-color="#FFCE47"/>
<stop offset="1" stop-color="#FF9356"/>
</linearGradient>
<linearGradient id="paint12_linear_3_11915" x1="67.0427" y1="62.1604" x2="58.5591" y2="48.7848" gradientUnits="userSpaceOnUse">
<stop stop-color="#FF9356"/>
<stop offset="1" stop-color="#FF755C"/>
</linearGradient>
<linearGradient id="paint13_linear_3_11915" x1="31.4101" y1="59.1367" x2="15.7469" y2="34.4412" gradientUnits="userSpaceOnUse">
<stop stop-color="#7ACBFF"/>
<stop offset="1" stop-color="#45A2E0"/>
</linearGradient>
<linearGradient id="paint14_linear_3_11915" x1="51.4686" y1="73.0405" x2="40.0521" y2="55.0406" gradientUnits="userSpaceOnUse">
<stop stop-color="#FF755C"/>
<stop offset="1" stop-color="#FF4181"/>
</linearGradient>
<linearGradient id="paint15_linear_3_11915" x1="39.1798" y1="71.3868" x2="25.2469" y2="49.4195" gradientUnits="userSpaceOnUse">
<stop stop-color="#FF4181"/>
<stop offset="1" stop-color="#843561"/>
</linearGradient>
<linearGradient id="paint16_linear_3_11915" x1="56.2917" y1="62.9273" x2="48.1945" y2="50.1609" gradientUnits="userSpaceOnUse">
<stop stop-color="#843561" stop-opacity="0"/>
<stop offset="1" stop-color="#3A2F4D"/>
</linearGradient>
<linearGradient id="paint17_linear_3_11915" x1="5.44989" y1="56.9478" x2="16.984" y2="75.1331" gradientUnits="userSpaceOnUse">
<stop stop-color="#FFE0EA"/>
<stop offset="1" stop-color="#FFC0D5"/>
</linearGradient>
<linearGradient id="paint18_linear_3_11915" x1="13.6609" y1="47.1057" x2="54.263" y2="56.1924" gradientUnits="userSpaceOnUse">
<stop stop-color="#FFCE47"/>
<stop offset="1" stop-color="#FF9356"/>
</linearGradient>
<linearGradient id="paint19_linear_3_11915" x1="38.129" y1="59.5869" x2="26.4854" y2="41.2289" gradientUnits="userSpaceOnUse">
<stop stop-color="#FFCE47"/>
<stop offset="1" stop-color="#FF9356"/>
</linearGradient>
<linearGradient id="paint20_linear_3_11915" x1="2.46939" y1="70.8187" x2="5.4124" y2="75.4588" gradientUnits="userSpaceOnUse">
<stop stop-color="#2F73A0"/>
<stop offset="1" stop-color="#174461"/>
</linearGradient>
<linearGradient id="paint21_linear_3_11915" x1="66.3022" y1="24.6471" x2="67.5395" y2="28.2997" gradientUnits="userSpaceOnUse">
<stop stop-color="#EDF5FF"/>
<stop offset="1" stop-color="#C7E9FF"/>
</linearGradient>
<linearGradient id="paint22_linear_3_11915" x1="69.8874" y1="31.9448" x2="71.4795" y2="37.2912" gradientUnits="userSpaceOnUse">
<stop stop-color="#EDF5FF"/>
<stop offset="1" stop-color="#C7E9FF"/>
</linearGradient>
<linearGradient id="paint23_linear_3_11915" x1="75.6162" y1="29.8892" x2="72.0766" y2="24.3085" gradientUnits="userSpaceOnUse">
<stop stop-color="#2F73A0"/>
<stop offset="1" stop-color="#174461"/>
</linearGradient>
<linearGradient id="paint24_linear_3_11915" x1="55.6925" y1="37.8455" x2="52.6437" y2="39.7792" gradientUnits="userSpaceOnUse">
<stop stop-color="#7ACBFF" stop-opacity="0"/>
<stop offset="1" stop-color="#2F73A0"/>
</linearGradient>
<linearGradient id="paint25_linear_3_11915" x1="50.2096" y1="40.4372" x2="44.9374" y2="45.798" gradientUnits="userSpaceOnUse">
<stop stop-color="#2F73A0"/>
<stop offset="1" stop-color="#174461"/>
</linearGradient>
</defs>
</svg>
